<?xml version="1.0" encoding="UTF-8"?>
<svg id="Ebene_1" data-name="Ebene 1" xmlns="http://www.w3.org/2000/svg" viewBox="0 0 195.53 85.04">
  <defs>
    <style>
      .cls-1 {
        fill: none;
      }

      .cls-2 {
        fill: #e00;
      }
    </style>
  </defs>
  <rect class="cls-1" width="194.55" height="84.04"/>
  <rect class="cls-2" x="123.73" y="14.17" width="1.89" height="56.69"/>
  <path class="cls-2" d="m139.22,53.69c.24.57.58,1.07,1.01,1.5.43.43.93.77,1.5,1.01.57.24,1.18.37,1.83.37h18.92c.65,0,1.26-.12,1.84-.37.58-.24,1.08-.58,1.5-1.01.42-.43.76-.93,1-1.5.24-.57.37-1.18.37-1.83v-10.4h-21.75v-2.83h21.75v-1.88c0-.65-.12-1.26-.37-1.83-.24-.57-.58-1.07-1-1.5-.42-.43-.92-.77-1.5-1.01-.58-.24-1.19-.37-1.84-.37h-18.92c-.65,0-1.26.12-1.83.37-.57.24-1.07.58-1.5,1.01-.43.43-.77.93-1.01,1.5-.24.57-.37,1.18-.37,1.83v10.39h21.71v2.83h-21.71v1.88c0,.65.12,1.26.37,1.83m9.44-27.38c.25.57.59,1.07,1.01,1.5.42.43.92.77,1.5,1.01.58.24,1.19.37,1.84.37s1.26-.12,1.83-.37c.57-.24,1.07-.58,1.5-1.01s.77-.93,1.01-1.5c.24-.57.37-1.18.37-1.83s-.12-1.26-.37-1.83c-.24-.57-.58-1.07-1.01-1.5-.43-.43-.93-.77-1.5-1.01-.57-.24-1.18-.37-1.83-.37s-1.27.12-1.84.37c-.58.24-1.08.58-1.5,1.01-.42.43-.76.93-1.01,1.5-.25.57-.38,1.18-.38,1.83s.13,1.26.38,1.83"/>
  <g>
    <polygon class="cls-2" points="90.57 56.69 90.57 24.73 97.3 21.4 97.3 51.23 110.5 51.23 110.5 56.69 90.57 56.69"/>
    <path class="cls-2" d="m28.35,56.69V23.79h10.56c2.45,0,4.64.34,6.57,1.03,1.92.69,3.55,1.71,4.88,3.09,1.32,1.37,2.34,3.09,3.04,5.15.7,2.06,1.05,4.46,1.05,7.2s-.35,5.14-1.05,7.2c-.7,2.06-1.72,3.77-3.05,5.13-1.34,1.36-2.96,2.39-4.89,3.07-1.93.68-4.11,1.03-6.54,1.03h-10.56Zm6.73-5.46h3.88c1.94,0,3.56-.48,4.86-1.43,1.3-.96,2.21-2.3,2.7-4.03.5-1.72.75-3.57.75-5.52,0-2.87-.43-5.15-1.29-6.86-.86-1.71-1.94-2.83-3.22-3.36-1.29-.53-2.55-.8-3.8-.8h-3.88v22.01Z"/>
    <path class="cls-2" d="m56.08,56.69c.82-3,1.66-5.95,2.54-8.83.88-2.88,1.85-5.85,2.91-8.9,1.06-3.05,2.11-5.84,3.15-8.37,1.03-2.53,2.06-4.79,3.1-6.79h6.4c.76,1.48,1.5,3.09,2.25,4.83.75,1.74,1.48,3.56,2.19,5.44.72,1.89,1.41,3.82,2.09,5.79.68,1.97,1.33,3.93,1.94,5.88.62,1.94,1.19,3.84,1.73,5.7.54,1.86,1.03,3.61,1.48,5.26h-6.82c-.3-1.05-.58-2.14-.87-3.27-.28-1.13-.6-2.35-.93-3.64h-12.74c-.8,3.13-1.4,5.43-1.8,6.91h-6.63Zm10.05-12.25h9.5c-.89-2.9-2.49-7.55-4.79-13.94-.49,1.39-.96,2.7-1.39,3.93-.43,1.23-.84,2.42-1.22,3.55-.38,1.13-.75,2.23-1.1,3.3-.35,1.06-.68,2.12-1,3.17"/>
    <g>
      <path class="cls-2" d="m28.35,70.86v-7.82h2.31c.56,0,1.06.08,1.49.25.44.16.81.41,1.12.74s.54.74.7,1.23c.16.49.24,1.06.24,1.71s-.08,1.22-.25,1.71c-.16.49-.4.9-.7,1.22s-.68.57-1.12.73c-.44.16-.94.24-1.49.24h-2.31Zm1.13-.93h1.19c.37,0,.69-.06.98-.19.29-.12.53-.31.73-.56.2-.25.35-.56.46-.93.1-.37.16-.81.16-1.3s-.05-.93-.16-1.3c-.1-.37-.26-.68-.46-.93-.2-.25-.44-.44-.73-.56s-.62-.19-.98-.19h-1.19v5.95Z"/>
      <path class="cls-2" d="m37.91,71c-.43,0-.82-.07-1.15-.21-.34-.14-.62-.34-.86-.6-.23-.26-.41-.57-.53-.94s-.18-.78-.18-1.23.05-.85.17-1.22c.11-.37.27-.68.48-.95.21-.26.48-.47.79-.61.32-.14.68-.22,1.08-.22.76,0,1.33.23,1.72.69s.58,1.11.58,1.97c0,.25,0,.48-.02.67h-3.63c.04.58.2,1.02.48,1.32.28.31.69.46,1.24.46.25,0,.5-.02.74-.05s.45-.08.63-.13l.21.83c-.24.07-.5.13-.77.16-.28.03-.6.05-.96.05Zm-1.58-3.44h2.53v-.26c0-.47-.09-.83-.28-1.09s-.48-.38-.89-.38c-.43,0-.75.15-.97.46s-.35.73-.38,1.28Z"/>
      <path class="cls-2" d="m42.97,70.97c-.59,0-1.04-.16-1.36-.47-.32-.31-.48-.78-.48-1.41v-3.92h1.09v3.69c0,.43.09.73.27.92.18.19.45.28.82.28.2,0,.39-.04.57-.12.18-.08.33-.2.46-.34.13-.14.23-.31.3-.5s.11-.39.11-.61v-3.32h1.09v5.69h-1.06v-.8c-.18.27-.42.49-.72.66-.31.17-.67.25-1.09.25Z"/>
      <path class="cls-2" d="m49.18,70.97c-.29,0-.53-.04-.73-.12-.2-.08-.37-.19-.5-.33-.13-.15-.22-.32-.28-.53s-.09-.45-.09-.71v-3.26h-.89v-.85h.89v-1.28c.28-.1.64-.26,1.09-.48v1.76h1.48v.85h-1.48v3.14c0,.33.06.57.18.71.12.15.33.22.63.22.15,0,.29-.01.43-.03.13-.02.24-.05.31-.07l.19.81c-.18.05-.37.09-.58.12-.21.03-.43.04-.65.04Z"/>
      <path class="cls-2" d="m53.01,70.97c-.26,0-.49-.01-.71-.04-.21-.03-.41-.06-.58-.1s-.32-.08-.44-.13c-.12-.04-.23-.08-.3-.12l.29-.82c.19.08.36.14.52.18s.33.08.54.11c.2.03.41.04.61.04.33,0,.59-.04.79-.11s.32-.18.38-.3c.06-.12.09-.25.09-.37,0-.2-.08-.36-.23-.48s-.34-.22-.57-.29-.44-.14-.64-.21c-.23-.08-.44-.16-.64-.24-.2-.08-.37-.19-.51-.31s-.26-.27-.34-.44c-.08-.17-.12-.38-.12-.63,0-.27.05-.51.15-.71s.24-.38.43-.52c.18-.14.4-.25.66-.32.26-.07.55-.11.86-.11.37,0,.7.02.97.07.27.04.52.1.73.16v.9c-.24-.08-.49-.14-.76-.19-.27-.05-.56-.07-.88-.07-.38,0-.66.06-.84.18-.18.12-.27.3-.27.53,0,.12.03.22.1.31.06.08.15.16.27.23.12.07.26.13.43.18s.36.12.57.18c.44.14.78.28,1.04.43s.43.34.53.56c.1.22.16.47.16.73,0,.29-.05.54-.16.76-.11.22-.27.4-.47.54-.2.14-.44.25-.73.32-.28.07-.6.1-.95.1Z"/>
      <path class="cls-2" d="m58.85,70.95c-.43,0-.81-.07-1.14-.2-.33-.13-.61-.33-.84-.58s-.4-.56-.52-.92-.18-.77-.18-1.23.06-.86.18-1.23.3-.68.53-.93c.23-.26.52-.45.85-.59s.72-.2,1.16-.2c.3,0,.59.03.86.08.27.05.45.09.54.13v.9c-.06-.01-.13-.03-.22-.06-.09-.02-.18-.05-.29-.06-.1-.02-.21-.03-.33-.05s-.23-.02-.35-.02c-.58,0-1.01.16-1.31.49-.3.33-.45.84-.45,1.54s.14,1.19.42,1.52c.28.33.7.49,1.26.49.27,0,.52-.02.74-.07.22-.04.38-.09.48-.13l.26.85c-.21.07-.44.14-.71.19-.26.05-.57.08-.94.08Z"/>
      <path class="cls-2" d="m61.36,70.86v-8.27h1.09v3.33c.16-.26.39-.47.68-.63s.65-.24,1.08-.24.81.09,1.1.28.48.42.59.71c.11.29.16.58.16.87v3.95h-1.09v-3.64c0-.43-.09-.74-.27-.94-.18-.2-.45-.3-.82-.3-.29,0-.56.09-.8.26s-.4.38-.49.62c-.09.24-.14.47-.14.68v3.31h-1.09Z"/>
      <path class="cls-2" d="m69.96,71c-.43,0-.82-.07-1.15-.21-.34-.14-.62-.34-.86-.6-.23-.26-.41-.57-.53-.94s-.18-.78-.18-1.23.05-.85.17-1.22c.11-.37.27-.68.48-.95.21-.26.48-.47.79-.61.32-.14.68-.22,1.08-.22.76,0,1.33.23,1.72.69s.58,1.11.58,1.97c0,.25,0,.48-.02.67h-3.63c.04.58.2,1.02.48,1.32.28.31.69.46,1.24.46.25,0,.5-.02.74-.05s.45-.08.63-.13l.21.83c-.24.07-.5.13-.77.16-.28.03-.6.05-.96.05Zm-1.58-3.44h2.53v-.26c0-.47-.09-.83-.28-1.09s-.48-.38-.89-.38c-.43,0-.75.15-.97.46s-.35.73-.38,1.28Z"/>
      <path class="cls-2" d="m75.47,70.86v-7.82h1.13v6.89h3.31v.93h-4.44Z"/>
      <path class="cls-2" d="m83.16,71c-.43,0-.82-.07-1.15-.21-.34-.14-.62-.34-.86-.6-.23-.26-.41-.57-.53-.94s-.18-.78-.18-1.23.05-.85.17-1.22c.11-.37.27-.68.48-.95.21-.26.48-.47.79-.61.32-.14.68-.22,1.08-.22.76,0,1.33.23,1.72.69s.58,1.11.58,1.97c0,.25,0,.48-.02.67h-3.63c.04.58.2,1.02.48,1.32.28.31.69.46,1.24.46.25,0,.5-.02.74-.05s.45-.08.63-.13l.21.83c-.24.07-.5.13-.77.16-.28.03-.6.05-.96.05Zm-1.58-3.44h2.53v-.26c0-.47-.09-.83-.28-1.09s-.48-.38-.89-.38c-.43,0-.75.15-.97.46s-.35.73-.38,1.28Z"/>
      <path class="cls-2" d="m87.79,70.97c-.24,0-.46-.03-.68-.09s-.4-.16-.56-.3c-.16-.14-.29-.32-.38-.53-.09-.22-.14-.48-.14-.79,0-.43.1-.79.3-1.07.2-.28.49-.5.87-.65.22-.08.46-.15.73-.19s.57-.06.9-.07c.01,0,.05,0,.11,0s.12,0,.18,0,.12,0,.18,0,.09,0,.11,0v-.31c0-.29-.05-.51-.16-.66-.1-.16-.27-.26-.48-.32-.22-.06-.45-.09-.69-.09-.31,0-.59.03-.85.09-.26.06-.51.14-.75.22v-.89c.31-.08.53-.13.67-.16.14-.03.32-.05.53-.07.22-.02.42-.03.61-.03.38,0,.7.04.98.11.28.07.51.19.68.34.18.15.31.35.4.59.09.24.13.52.13.85v3.92h-1.03l-.02-.48c-.11.11-.25.21-.42.3-.17.09-.37.16-.59.21-.23.05-.43.08-.63.08Zm.3-.84c.19,0,.39-.03.59-.09.2-.06.35-.13.46-.21.11-.08.2-.15.27-.22v-1.54h-.41c-.32,0-.6.02-.83.06s-.43.1-.59.2-.27.21-.35.36c-.08.15-.12.33-.12.54,0,.19.04.36.12.51s.19.26.35.32c.15.06.32.09.51.09Z"/>
      <path class="cls-2" d="m93.49,70.97c-.26,0-.49-.01-.71-.04-.21-.03-.41-.06-.58-.1s-.32-.08-.44-.13c-.12-.04-.23-.08-.3-.12l.29-.82c.19.08.36.14.52.18s.33.08.54.11c.2.03.41.04.61.04.33,0,.59-.04.79-.11s.32-.18.38-.3c.06-.12.09-.25.09-.37,0-.2-.08-.36-.23-.48s-.34-.22-.57-.29-.44-.14-.64-.21c-.23-.08-.44-.16-.64-.24-.2-.08-.37-.19-.51-.31s-.26-.27-.34-.44c-.08-.17-.12-.38-.12-.63,0-.27.05-.51.15-.71s.24-.38.43-.52c.18-.14.4-.25.66-.32.26-.07.55-.11.86-.11.37,0,.7.02.97.07.27.04.52.1.73.16v.9c-.24-.08-.49-.14-.76-.19-.27-.05-.56-.07-.88-.07-.38,0-.66.06-.84.18-.18.12-.27.3-.27.53,0,.12.03.22.1.31.06.08.15.16.27.23.12.07.26.13.43.18s.36.12.57.18c.44.14.78.28,1.04.43s.43.34.53.56c.1.22.16.47.16.73,0,.29-.05.54-.16.76-.11.22-.27.4-.47.54-.2.14-.44.25-.73.32-.28.07-.6.1-.95.1Z"/>
      <path class="cls-2" d="m97.25,70.86v-4.89c-.34-.05-.58-.08-.74-.09v-.72h1.84v5.69h-1.09Zm.42-6.82c-.1,0-.19-.02-.28-.05-.09-.03-.16-.08-.23-.15-.07-.06-.12-.13-.16-.21s-.06-.17-.06-.26c0-.14.04-.26.12-.38s.17-.19.28-.24c.11-.05.22-.07.32-.07.14,0,.26.04.38.11.11.07.2.16.25.27.05.11.08.21.08.31,0,.14-.04.27-.13.38-.09.12-.18.2-.28.23-.1.04-.2.06-.29.06Z"/>
      <path class="cls-2" d="m99.65,70.86v-5.69h1.04l.02.8c.17-.27.41-.49.71-.66.3-.17.66-.25,1.08-.25.45,0,.81.09,1.1.28s.48.42.59.71c.11.29.16.58.16.87v3.95h-1.09v-3.64c0-.43-.09-.74-.27-.94-.18-.2-.45-.3-.82-.3-.29,0-.56.09-.8.26s-.4.38-.49.62c-.09.24-.14.47-.14.68v3.31h-1.09Z"/>
      <path class="cls-2" d="m107.98,73.25c-.43,0-.79-.02-1.08-.07-.29-.05-.52-.09-.69-.13l.16-.83c.48.12.94.18,1.37.18.57,0,.99-.12,1.26-.36.27-.24.4-.61.4-1.1v-.87c-.19.29-.41.5-.67.63-.26.13-.58.2-.96.2-.33,0-.63-.05-.9-.16-.27-.11-.51-.28-.71-.51-.2-.23-.35-.53-.47-.9-.11-.36-.17-.8-.17-1.31,0-.47.06-.89.18-1.26s.29-.68.5-.93.46-.44.74-.57c.28-.13.59-.2.91-.2.27,0,.51.03.72.09.21.06.39.14.52.24s.24.19.32.27l.03-.48h1.04v5.7c0,.41-.05.76-.16,1.04-.1.28-.26.52-.45.72-.21.21-.48.36-.8.46-.32.1-.69.15-1.1.15Zm.07-3.23c.31,0,.57-.09.79-.28.22-.19.36-.42.44-.69.08-.28.12-.55.12-.81v-1.72c-.13-.12-.24-.22-.36-.3s-.25-.14-.41-.18c-.16-.04-.32-.06-.47-.06-.22,0-.41.05-.59.14-.18.09-.33.22-.46.4-.13.17-.23.39-.3.64-.07.25-.11.54-.11.87,0,.26.02.52.06.76.04.24.11.45.21.64.1.18.24.33.41.44.17.11.4.16.66.16Z"/>
    </g>
  </g>
</svg>